<svg xmlns="http://www.w3.org/2000/svg" viewBox="0 0 1600 900">
  <defs>
    <radialGradient id="g" cx="50%" cy="42%" r="72%">
      <stop offset="0%" stop-color="#2a1a1c"/>
      <stop offset="100%" stop-color="#0d0a0b"/>
    </radialGradient>
  </defs>
  <rect width="1600" height="900" fill="url(#g)"/>
  <path d="M430 250 Q800 118 1170 250" fill="none" stroke="#3a2426" stroke-width="46" stroke-linecap="round"/>
  <path d="M500 300 h600 q60 0 60 60 v240 q0 60 -60 60 h-600 q-60 0 -60 -60 v-240 q0 -60 60 -60 z" fill="#151113" stroke="#463033" stroke-width="6"/>
  <ellipse cx="800" cy="470" rx="240" ry="170" fill="#060405"/>
  <ellipse cx="800" cy="470" rx="240" ry="170" fill="none" stroke="#4c3438" stroke-width="4"/>
  <circle cx="800" cy="470" r="105" fill="none" stroke="#dc0000" stroke-width="14"/>
  <circle cx="800" cy="470" r="34" fill="#121012" stroke="#4c3438" stroke-width="4"/>
  <path d="M800 505 v-70 M742 513 l-42 -52 M858 513 l42 -52" stroke="#dc0000" stroke-width="12" stroke-linecap="round"/>
  <path d="M500 300 h600 v14 h-600 z" fill="#dc0000" opacity=".94"/>
  <path d="M500 646 h600 v-14 h-600 z" fill="#fff200" opacity=".9"/>
  <path d="M300 420 l90 -40 v160 l-90 40 z" fill="#151113" stroke="#463033" stroke-width="4" opacity=".92"/>
  <path d="M1300 420 l-90 -40 v160 l90 40 z" fill="#151113" stroke="#463033" stroke-width="4" opacity=".92"/>
  <g stroke="#ffffff" stroke-opacity=".05" stroke-width="2">
    <path d="M560 370 l-44 44 M660 370 l-44 44 M940 370 l-44 44 M1040 370 l-44 44 M560 570 l-44 -44 M660 570 l-44 -44 M940 570 l-44 -44 M1040 570 l-44 -44"/>
  </g>
</svg>
